<svg xmlns="http://www.w3.org/2000/svg" width="64" height="64" fill="none" viewBox="0 0 64 64"><defs><linearGradient id="aqua_svg__a" x1="59.932" x2="1.336" y1="59.676" y2="1.079" gradientUnits="userSpaceOnUse"><stop offset=".25" stop-color="#7256FF"/><stop offset=".73" stop-color="#007DFE"/></linearGradient><linearGradient id="aqua_svg__b" x1="7.671" x2="61.125" y1="64.392" y2="39.609" gradientUnits="userSpaceOnUse"><stop offset=".3" stop-color="#00D886"/><stop offset=".54" stop-color="#7256FF"/></linearGradient></defs><path fill="url(#aqua_svg__a)" d="M0 4.125v34.127c0 1.659.993 3.155 2.52 3.8L39.943 57.85c.518.219 1.075.33 1.638.324l18.329-.15A4.125 4.125 0 0 0 64 53.9V36.234c0-.806-.236-1.593-.678-2.267L42.213 1.86A4.125 4.125 0 0 0 38.766 0H4.125A4.125 4.125 0 0 0 0 4.125Z"/><path fill="url(#aqua_svg__b)" d="M6 49.015v10.862a4.125 4.125 0 0 0 4.125 4.125h12.566c.2 0 .4-.014.598-.044l37.185-5.448A4.125 4.125 0 0 0 64 54.429V39.03a4.125 4.125 0 0 0-4.127-4.125l-18.504.005c-.426 0-.849.066-1.254.195L8.871 45.085A4.126 4.126 0 0 0 6 49.015H6Z"/><path fill="#00D886" d="M6 47.55v12.259a4.125 4.125 0 0 0 4.19 4.124L21 64c1.181-.019 2.531-.786 3.3-1.683l32.707-38.158c.64-.748.993-1.7.993-2.685V10.125A4.125 4.125 0 0 0 53.875 6H42.872c-1.19 0-2.321.514-3.105 1.409L7.021 44.834A4.123 4.123 0 0 0 6 47.55Z"/><path fill="#000" d="M52 12H12v40h40V12Z"/><path fill="#fff" d="M33 44H17v3h16v-3ZM20.746 31.242a7.32 7.32 0 0 1-2.755-2.786c-.668-1.183-1.003-2.503-1.003-3.961s.334-2.778 1.003-3.96a7.314 7.314 0 0 1 2.755-2.787c1.168-.675 2.474-1.014 3.917-1.014 1.443 0 2.739.338 3.907 1.013a7.278 7.278 0 0 1 2.75 2.787c.664 1.183.996 2.503.996 3.961s-.332 2.778-.997 3.96a7.278 7.278 0 0 1-2.749 2.788c-1.168.675-2.47 1.013-3.907 1.013-1.436 0-2.75-.338-3.917-1.013Zm6.308-2.229c.707-.446 1.261-1.065 1.661-1.854.4-.79.6-1.678.6-2.664 0-.986-.2-1.874-.6-2.664a4.6 4.6 0 0 0-1.661-1.854c-.708-.446-1.504-.67-2.39-.67-.886 0-1.685.223-2.396.67a4.62 4.62 0 0 0-1.672 1.854c-.403.79-.605 1.678-.605 2.664 0 .986.202 1.874.605 2.664.404.79.962 1.408 1.672 1.854.711.447 1.51.67 2.396.67.886 0 1.683-.223 2.39-.67Zm-2.16 6.034a2.666 2.666 0 0 1-1.126-1.077c-.261-.464-.391-1.011-.391-1.64l-.01-1.94h2.743v1.811c0 .221.043.413.129.573.085.161.209.283.37.365.16.082.352.123.574.123h1.833v2.165h-2.412c-.65 0-1.22-.127-1.71-.38ZM38.233 16.992h3.173l5.563 15.006h-2.947l-1.212-3.483h-5.842l-1.136 3.483H32.82l5.413-15.006Zm3.805 9.261-2.025-5.723-.225-.954-.215.954-1.908 5.723h4.373Z"/></svg>