<svg xmlns="http://www.w3.org/2000/svg" width="64" height="64" fill="none" viewBox="0 0 64 64"><defs><linearGradient id="dataspell_svg__a" x1="4.067" x2="62.664" y1="4.327" y2="62.923" gradientUnits="userSpaceOnUse"><stop offset=".28" stop-color="#007DFE"/><stop offset=".73" stop-color="#00D980"/></linearGradient><linearGradient id="dataspell_svg__b" x1="56.329" x2="2.875" y1="-.391" y2="24.392" gradientUnits="userSpaceOnUse"><stop offset=".32" stop-color="#F0EB18"/><stop offset=".55" stop-color="#007DFE"/></linearGradient></defs><path fill="url(#dataspell_svg__a)" d="M64 59.878V25.75a4.125 4.125 0 0 0-2.52-3.8L24.057 6.153a4.118 4.118 0 0 0-1.638-.325l-18.329.15A4.124 4.124 0 0 0 0 10.103v17.665c0 .806.236 1.593.678 2.267l21.109 32.109a4.124 4.124 0 0 0 3.447 1.859h34.641A4.125 4.125 0 0 0 64 59.878Z"/><path fill="url(#dataspell_svg__b)" d="M58 14.988V4.125A4.125 4.125 0 0 0 53.875 0H41.309c-.2 0-.4.014-.598.044L3.527 5.492A4.125 4.125 0 0 0 0 9.573v15.398a4.125 4.125 0 0 0 4.126 4.125l18.505-.005c.425 0 .848-.066 1.253-.195l31.246-9.98A4.126 4.126 0 0 0 58 14.988Z"/><path fill="#F0EB18" d="M58 16.45V4.191A4.125 4.125 0 0 0 53.81.067L43 0c-1.181.019-2.531.786-3.3 1.683L6.993 39.84c-.64.748-.993 1.7-.993 2.685v11.349A4.125 4.125 0 0 0 10.125 58h11.003c1.19 0 2.321-.514 3.104-1.409L56.98 19.166A4.124 4.124 0 0 0 58 16.45Z"/><path fill="#000" d="M52 12H12v40h40V12Z"/><path fill="#fff" d="M33 44H17v3h16v-3ZM17.012 16.992h5.713c1.422 0 2.696.321 3.821.965a6.882 6.882 0 0 1 2.642 2.674c.636 1.14.954 2.427.954 3.864 0 1.437-.318 2.725-.954 3.865a6.891 6.891 0 0 1-2.642 2.674c-1.125.643-2.4.964-3.821.964h-5.713V16.992Zm8.028 11.876c.672-.4 1.19-.973 1.554-1.72.365-.747.547-1.63.547-2.653 0-1.023-.182-1.907-.547-2.653-.364-.747-.882-1.32-1.554-1.721-.672-.4-1.454-.6-2.348-.6h-2.755v9.947h2.755c.893 0 1.676-.2 2.348-.6ZM34.713 31.664c-.84-.393-1.497-.943-1.973-1.65-.475-.708-.72-1.522-.734-2.444h2.937c0 .436.114.818.343 1.147.229.329.547.586.954.772.407.185.875.278 1.404.278.53 0 .952-.083 1.334-.251.382-.168.68-.402.89-.702.21-.3.316-.643.316-1.029 0-.479-.145-.875-.434-1.19-.29-.314-.688-.532-1.195-.654l-2.648-.59c-.714-.156-1.336-.426-1.865-.809a4.015 4.015 0 0 1-1.232-1.42c-.293-.564-.44-1.2-.44-1.908 0-.857.222-1.627.665-2.31.443-.682 1.06-1.215 1.854-1.597.793-.382 1.694-.573 2.701-.573s1.933.186 2.733.558 1.424.888 1.871 1.549c.446.66.674 1.42.68 2.277h-2.926c0-.364-.096-.691-.289-.98s-.466-.515-.82-.676a2.915 2.915 0 0 0-1.217-.24c-.457 0-.86.076-1.205.23a1.902 1.902 0 0 0-.81.643c-.193.275-.29.595-.29.96 0 .414.135.757.403 1.028.268.272.634.464 1.098.579l2.552.557c.735.15 1.392.435 1.967.852a4.45 4.45 0 0 1 1.345 1.544c.32.611.482 1.278.482 1.999 0 .886-.234 1.681-.702 2.385-.468.703-1.124 1.255-1.967 1.656-.843.4-1.808.6-2.894.6s-2.05-.197-2.889-.59Z"/></svg>