<svg xmlns="http://www.w3.org/2000/svg" width="64" height="64" fill="none" viewBox="0 0 64 64"><defs><linearGradient id="dotcover_svg__a" x1="56.329" x2="2.874" y1="-.391" y2="24.392" gradientUnits="userSpaceOnUse"><stop offset=".18" stop-color="#6B57FF"/><stop offset=".54" stop-color="#FF45ED"/></linearGradient><linearGradient id="dotcover_svg__b" x1="4.067" x2="62.664" y1="4.326" y2="62.923" gradientUnits="userSpaceOnUse"><stop offset=".12" stop-color="#FF45ED"/><stop offset=".92" stop-color="#FC801D"/></linearGradient></defs><path fill="#6B57FF" d="M58 16.446V4.187A4.125 4.125 0 0 0 53.81.063L42.765.239A4.125 4.125 0 0 0 39.7 1.68L6.993 39.837c-.64.748-.993 1.7-.993 2.685v11.35a4.125 4.125 0 0 0 4.125 4.124h11.003c1.19 0 2.321-.514 3.104-1.409L56.98 19.162A4.124 4.124 0 0 0 58 16.446Z"/><path fill="url(#dotcover_svg__a)" d="M58 14.988V4.125A4.125 4.125 0 0 0 53.875 0H41.309c-.2 0-.4.014-.598.044L3.527 5.492A4.125 4.125 0 0 0 0 9.573v15.398a4.125 4.125 0 0 0 4.126 4.125l18.505-.005c.425 0 .848-.066 1.253-.195l31.246-9.98A4.126 4.126 0 0 0 58 14.988Z"/><path fill="url(#dotcover_svg__b)" d="M64 59.878V25.75a4.125 4.125 0 0 0-2.52-3.8L24.057 6.153a4.118 4.118 0 0 0-1.638-.325l-18.329.15A4.124 4.124 0 0 0 0 10.103v17.665c0 .806.236 1.593.678 2.267l21.109 32.109a4.124 4.124 0 0 0 3.447 1.859h34.641A4.125 4.125 0 0 0 64 59.878Z"/><path fill="#000" d="M52 12H12v40h40V12Z"/><path fill="#fff" d="M33 44H17v3h16v-3ZM16.996 16.992h5.713c1.422 0 2.696.321 3.821.965a6.888 6.888 0 0 1 2.643 2.674c.636 1.14.954 2.427.954 3.864 0 1.437-.318 2.725-.954 3.865a6.888 6.888 0 0 1-2.642 2.674c-1.126.643-2.4.964-3.822.964h-5.713V16.992Zm8.028 11.876c.672-.4 1.19-.973 1.555-1.72.364-.747.547-1.63.547-2.653 0-1.023-.183-1.907-.547-2.653-.365-.747-.883-1.32-1.555-1.721-.672-.4-1.454-.6-2.347-.6h-2.755v9.947h2.755c.893 0 1.675-.2 2.347-.6ZM35.41 31.242a7.286 7.286 0 0 1-2.743-2.786c-.665-1.183-.997-2.503-.997-3.961s.332-2.778.997-3.96 1.58-2.112 2.744-2.787c1.164-.675 2.464-1.014 3.901-1.014 1.215 0 2.33.225 3.345.675a6.867 6.867 0 0 1 2.535 1.892 6.442 6.442 0 0 1 1.356 2.793h-3.066a4.054 4.054 0 0 0-.895-1.431 4.039 4.039 0 0 0-1.43-.95 4.896 4.896 0 0 0-1.823-.332c-.887 0-1.687.222-2.402.665a4.61 4.61 0 0 0-1.677 1.827c-.404.776-.606 1.649-.606 2.62 0 .973.202 1.846.606 2.621a4.606 4.606 0 0 0 1.677 1.828c.715.443 1.515.664 2.402.664.657 0 1.265-.11 1.822-.332a4.023 4.023 0 0 0 2.326-2.38h3.066a6.437 6.437 0 0 1-1.356 2.792 6.863 6.863 0 0 1-2.535 1.892c-1.015.45-2.13.675-3.345.675-1.436 0-2.736-.337-3.901-1.013v.003Z"/></svg>