<svg xmlns="http://www.w3.org/2000/svg" width="64" height="64" fill="none" viewBox="0 0 64 64"><defs><linearGradient id="dotmemory_svg__a" x1="59.676" x2="1.08" y1="4.067" y2="62.664" gradientUnits="userSpaceOnUse"><stop offset=".31" stop-color="#FF45ED"/><stop offset=".83" stop-color="#6B57FF"/></linearGradient><linearGradient id="dotmemory_svg__b" x1="64.391" x2="39.607" y1="56.329" y2="2.875" gradientUnits="userSpaceOnUse"><stop offset=".3" stop-color="#FDB60D"/><stop offset=".7" stop-color="#FF45ED"/></linearGradient></defs><path fill="url(#dotmemory_svg__a)" d="M4.125 64h34.127a4.125 4.125 0 0 0 3.8-2.52L57.85 24.057c.219-.518.33-1.076.324-1.638l-.15-18.329A4.125 4.125 0 0 0 53.9 0H36.234c-.806 0-1.593.236-2.267.678L1.86 21.787A4.125 4.125 0 0 0 0 25.234v34.641A4.125 4.125 0 0 0 4.125 64Z"/><path fill="url(#dotmemory_svg__b)" d="M49.013 58h10.862A4.125 4.125 0 0 0 64 53.875V41.309c0-.2-.014-.4-.044-.598L58.508 3.527A4.125 4.125 0 0 0 54.427 0H39.029a4.125 4.125 0 0 0-4.125 4.126l.005 18.505c0 .425.066.848.195 1.253l9.979 31.246a4.126 4.126 0 0 0 3.93 2.87Z"/><path fill="#FDB60D" d="M47.55 58h12.259a4.125 4.125 0 0 0 4.124-4.19L64 43c-.018-1.181-.785-2.531-1.682-3.3L24.16 6.993A4.126 4.126 0 0 0 21.474 6H10.125A4.125 4.125 0 0 0 6 10.125v11.003c0 1.19.514 2.321 1.409 3.104L44.834 56.98A4.123 4.123 0 0 0 47.55 58Z"/><path fill="#000" d="M52 12H12v40h40V12Z"/><path fill="#fff" d="M33 44H17v3h16v-3ZM17.012 16.992h5.713c1.422 0 2.696.321 3.821.965a6.888 6.888 0 0 1 2.643 2.674c.635 1.14.953 2.427.953 3.864 0 1.437-.318 2.725-.953 3.865a6.888 6.888 0 0 1-2.643 2.674c-1.125.643-2.4.964-3.821.964h-5.713V16.992Zm8.028 11.876c.672-.4 1.19-.973 1.554-1.72.365-.747.547-1.63.547-2.653 0-1.023-.182-1.907-.547-2.653-.364-.747-.882-1.32-1.554-1.721-.672-.4-1.454-.6-2.348-.6h-2.755v9.947h2.755c.893 0 1.676-.2 2.348-.6ZM32.232 16.992h4.073l3.087 9.85.258 1.287.225-1.286 2.98-9.85h4.137v15.005H44.1V21.29l.043-.782-3.495 11.49h-2.122l-3.451-11.415.043.707v10.708h-2.883V16.992h-.002Z"/></svg>