<svg xmlns="http://www.w3.org/2000/svg" width="64" height="64" fill="none" viewBox="0 0 64 64"><defs><linearGradient id="dottrace_svg__a" x1="-.391" x2="24.392" y1="7.671" y2="61.126" gradientUnits="userSpaceOnUse"><stop offset=".18" stop-color="#6B57FF"/><stop offset=".54" stop-color="#FF2358"/></linearGradient><linearGradient id="dottrace_svg__b" x1="4.325" x2="62.921" y1="59.932" y2="1.336" gradientUnits="userSpaceOnUse"><stop offset=".12" stop-color="#FF2358"/><stop offset=".92" stop-color="#FF45ED"/></linearGradient></defs><path fill="#6B57FF" d="M16.45 6H4.191a4.125 4.125 0 0 0-4.124 4.19l.176 11.044a4.125 4.125 0 0 0 1.44 3.066l38.159 32.707c.747.64 1.7.993 2.684.993h11.35A4.125 4.125 0 0 0 58 53.875V42.872c0-1.19-.514-2.321-1.41-3.105L19.167 7.021A4.123 4.123 0 0 0 16.45 6Z"/><path fill="url(#dottrace_svg__a)" d="M14.988 6H4.125A4.125 4.125 0 0 0 0 10.125v12.566c0 .2.014.4.044.598l5.448 37.185A4.125 4.125 0 0 0 9.573 64h15.398a4.125 4.125 0 0 0 4.125-4.127L29.09 41.37c0-.426-.066-.849-.195-1.254l-9.98-31.245A4.126 4.126 0 0 0 14.988 6V6Z"/><path fill="url(#dottrace_svg__b)" d="M59.876 0H25.748a4.125 4.125 0 0 0-3.8 2.52L6.151 39.943a4.118 4.118 0 0 0-.325 1.638l.15 18.329A4.125 4.125 0 0 0 10.101 64h17.666c.806 0 1.593-.236 2.266-.678l32.11-21.109A4.123 4.123 0 0 0 64 38.766V4.125A4.126 4.126 0 0 0 59.876 0Z"/><path fill="#000" d="M52 12H12v40h40V12Z"/><path fill="#fff" d="M33 44H17v3h16v-3ZM16.996 16.992h5.713c1.422 0 2.696.321 3.821.965a6.888 6.888 0 0 1 2.643 2.674c.636 1.14.954 2.427.954 3.864 0 1.437-.318 2.725-.954 3.865a6.888 6.888 0 0 1-2.642 2.674c-1.126.643-2.4.964-3.822.964h-5.713V16.992Zm8.028 11.876c.672-.4 1.19-.973 1.555-1.72.364-.747.547-1.63.547-2.653 0-1.023-.183-1.907-.547-2.653-.365-.747-.883-1.32-1.555-1.721-.672-.4-1.454-.6-2.347-.6h-2.755v9.947h2.755c.893 0 1.675-.2 2.347-.6ZM31.133 16.992H43.17v2.637h-4.545V32H35.7v-12.37h-4.566v-2.637Z"/></svg>